Coordinates
version=1
nRows=8
nColumns=36
inDegrees=yes

Units are S.I. units (second, meters, Newtons, ...)
If the header above contains a line with 'inDegrees', this indicates whether rotational values are in degrees (yes) or radians (no).

endheader
time	pelvis_tilt	pelvis_list	pelvis_rotation	pelvis_tx	pelvis_ty	pelvis_tz	hip_flexion_r	hip_adduction_r	hip_rotation_r	knee_angle_r	knee_angle_r_beta	ankle_angle_r	subtalar_angle_r	mtp_angle_r	hip_flexion_l	hip_adduction_l	hip_rotation_l	knee_angle_l	knee_angle_l_beta	ankle_angle_l	subtalar_angle_l	mtp_angle_l	lumbar_extension	lumbar_bending	lumbar_rotation	arm_flex_r	arm_add_r	arm_rot_r	elbow_flex_r	pro_sup_r	arm_flex_l	arm_add_l	arm_rot_l	elbow_flex_l	pro_sup_l
      1.76666670	     -5.87474947	     -9.33776346	      4.86386395	      0.84371592	      0.97718615	      0.00705658	     27.88629349	      7.60577111	      1.15243899	     16.75604946	      0.29244823	      4.54064249	     -8.85873566	     -7.49897653	     10.75005886	     -1.73020640	      3.61566678	     11.48544553	      0.20045884	     12.00101971	      0.85694175	     -7.49897653	     -2.56109685	      1.22837741	     -1.32600715	     49.27937507	      9.51464465	     65.34719181	    123.62619176	     85.06904355	     49.10709082	      0.40419714	     76.65325072	    122.14872598	     61.09244726
      1.78333330	     -6.04552620	     -9.30710548	      4.85543649	      0.84391860	      0.97779532	      0.00707682	     28.65987782	      7.59279105	      1.30414515	     17.22403931	      0.30061620	      4.26641203	     -9.62977185	     -7.49904197	     11.37227129	     -1.64857356	      3.75538365	     12.36027925	      0.21572757	     12.06081866	      0.47182974	     -7.49904197	     -2.91921377	      1.20185895	     -1.02342629	     49.34384986	      9.14616082	     65.26067477	    123.83587102	     84.81597026	     49.27037698	      0.27371871	     76.90495159	    121.87092842	     61.08707816
      1.80000000	     -6.30256891	     -9.33411328	      4.88700811	      0.83946219	      0.97710084	      0.00977460	     29.58589968	      7.66488281	      1.43420233	     17.37964472	      0.30333202	      3.88873006	     -9.97071954	     -7.49922563	     12.20717469	     -1.64029096	      3.92210912	     13.26677992	      0.23154899	     11.97884369	      0.12175012	     -7.49922563	     -3.36827742	      1.18509257	     -0.66944998	     49.74685154	      8.83278072	     65.47063161	    123.88260740	     86.83085659	     49.81117400	      0.10598845	     77.25219386	    121.96377592	     61.33775868
      1.81666670	     -6.38263050	     -9.31974609	      5.03336944	      0.83514562	      0.97377649	      0.00678797	     30.60623971	      7.48815258	      1.42136286	     17.66807973	      0.30836616	      3.63408137	    -10.20099326	     -7.49923188	     13.01035954	     -1.45351920	      4.21853482	     14.22604879	      0.24829139	     12.00729978	     -0.09677395	     -7.49923188	     -4.13288075	      1.27687801	     -0.44234100	     50.36907422	      8.53934744	     65.87774734	    123.81303795	     86.85270296	     50.45221107	      0.12095582	     77.47037315	    122.16625358	     61.38394608
      1.83333330	     -6.71354148	     -9.34247601	      5.25693527	      0.83576492	      0.97126676	      0.00638414	     32.09338205	      7.42685141	      1.73315243	     17.70779716	      0.30905936	      3.30505707	    -10.37869462	     -7.49924756	     14.09837146	     -1.19528069	      4.87269328	     15.19628544	      0.26522522	     12.01393548	     -0.84752592	     -7.49924756	     -4.62322419	      1.32107267	     -0.03004026	     51.37001959	      8.14886733	     66.76668758	    124.21024117	     86.85248176	     51.05185047	      0.26294335	     78.53919331	    122.44928857	     61.56988081
      1.85000000	     -6.61595082	     -9.35843487	      5.43086350	      0.83575981	      0.97015070	      0.00618339	     33.04945305	      7.36757144	      1.89069301	     18.06293270	      0.31525765	      3.07473707	    -10.57629046	     -7.49925394	     14.81451842	     -1.02716176	      5.27470261	     16.46607012	      0.28738714	     12.05052412	     -1.35758350	     -7.49925394	     -5.64324485	      1.50497425	      0.21558783	     52.30941210	      7.84364703	     67.09325700	    124.32195841	     86.85616210	     51.60139995	      0.33263656	     78.59738388	    122.01389966	     61.64388074
      1.86666670	     -6.67997872	     -9.45554399	      5.66694722	      0.83589029	      0.96994674	      0.00597465	     33.93061184	      7.34891675	      1.88617623	     18.11589457	      0.31618201	      2.84131234	    -10.83378847	     -7.49926347	     15.63170776	     -0.95213708	      5.77708140	     17.70855868	      0.30907265	     12.01528986	     -2.37032110	     -7.49926347	     -6.46998730	      1.72275962	      0.53361360	     52.79437467	      7.59543963	     67.79698589	    124.76330924	     86.87769898	     51.86679912	      0.64476143	     79.00223817	    121.39092845	     61.80932971
      1.88333330	     -6.56299598	     -9.46678230	      5.60166511	      0.83530406	      0.96600611	      0.00636020	     34.58937293	      7.45430225	      2.00615364	     18.08417209	      0.31562835	      2.58466028	    -10.86063609	     -7.49926998	     16.29472194	     -0.82218230	      6.17391805	     19.07978840	      0.33300513	     12.29599847	     -3.16096412	     -7.49926998	     -7.41546363	      1.86773023	      0.91226528	     53.20086433	      7.72600639	     68.46363871	    125.10357940	     86.90416911	     51.80340696	      0.99655671	     79.17158787	    120.80615752	     61.94022835
